<?xml version="1.0" encoding="UTF-8" standalone="no"?>
<svg width="100px" height="77px" viewBox="0 0 100 77" version="1.1" xmlns="http://www.w3.org/2000/svg" xmlns:xlink="http://www.w3.org/1999/xlink">
    <!-- Generator: Sketch 3.8.2 (29753) - http://www.bohemiancoding.com/sketch -->
    <title>icon</title>
    <desc>Created with Sketch.</desc>
    <defs></defs>
    <g id="Page-1" stroke="none" stroke-width="1" fill="none" fill-rule="evenodd">
        <g id="Artboard-1-Copy-4" transform="translate(-291.000000, -275.000000)">
            <g id="icon" transform="translate(291.000000, 275.000000)">
                <rect id="Rectangle-40" fill-opacity="0" fill="#FFFFFF" x="0" y="0" width="100" height="77"></rect>
                <g id="Group-8" transform="translate(9.000000, 7.000000)" fill="#8F8F8F">
                    <path d="M36,49.7497864 L36,49.228 C36,48.22 35.3243243,47.5 34.0540541,47.5 L33.9459459,47.5 C32.6756757,47.5 32,48.22 32,49.228 L32,53.7497864 L36,49.7497864 L36,49.7497864 Z M36,52.5782136 L36,57.388 C36,58.396 35.3243243,59.116 34.0540541,59.116 L33.9459459,59.116 C32.6756757,59.116 32,58.396 32,57.388 L32,56.5782136 L36,52.5782136 L36,52.5782136 Z M40,49.116 C40,45.876 37.9230769,43.5 34,43.5 C30.0769231,43.5 28,45.876 28,49.116 L28,57.276 C28,60.516 30.0769231,62.892 34,62.892 C37.9230769,62.892 40,60.516 40,57.276 L40,49.116 L40,49.116 Z" id="UU00UU-Copy"></path>
                    <path d="M50,49.7840882 L50,49.228 C50,48.22 49.3243243,47.5 48.0540541,47.5 L47.9459459,47.5 C46.6756757,47.5 46,48.22 46,49.228 L46,53.7497864 L49.8270554,49.922731 C49.8805877,49.8691987 49.9386474,49.8229778 50,49.7840882 L50,49.7840882 Z M50,52.5782136 L50,57.388 C50,58.396 49.3243243,59.116 48.0540541,59.116 L47.9459459,59.116 C46.6756757,59.116 46,58.396 46,57.388 L46,56.5439118 C46.0613526,56.5050222 46.1194123,56.4588013 46.1729446,56.405269 L50,52.5782136 L50,52.5782136 Z M54,49.116 C54,45.876 51.9230769,43.5 48,43.5 C44.0769231,43.5 42,45.876 42,49.116 L42,57.276 C42,60.516 44.0769231,62.892 48,62.892 C51.9230769,62.892 54,60.516 54,57.276 L54,49.116 L54,49.116 Z" id="UU00UU-Copy-2"></path>
                    <path d="M64,44.5 L68,44.5 L68,57.276 C68,60.516 65.9230769,62.892 62,62.892 C58.0769231,62.892 56,60.516 56,57.276 L56,44.5 L60,44.5 L60,56.3466777 C60,57.9621157 60.6756757,59.116 61.9459459,59.116 L62.0540541,59.116 C63.3243243,59.116 64,57.9621157 64,56.3466777 L64,44.5 L64,44.5 Z" id="UU00UU-Copy-3"></path>
                    <path d="M8,44.5 L12,44.5 L12,57.276 C12,60.516 9.92307692,62.892 6,62.892 C2.07692308,62.892 0,60.516 0,57.276 L0,44.5 L4,44.5 L4,56.3466777 C4,57.9621157 4.67567568,59.116 5.94594595,59.116 L6.05405405,59.116 C7.32432432,59.116 8,57.9621157 8,56.3466777 L8,44.5 L8,44.5 Z" id="UU00UU-Copy-5"></path>
                    <path d="M78,44.5 L82,44.5 L82,57.276 C82,60.516 79.9230769,62.892 76,62.892 C72.0769231,62.892 70,60.516 70,57.276 L70,44.5 L74,44.5 L74,56.3466777 C74,57.9621157 74.6756757,59.116 75.9459459,59.116 L76.0540541,59.116 C77.3243243,59.116 78,57.9621157 78,56.3466777 L78,44.5 L78,44.5 Z" id="UU00UU-Copy-4"></path>
                    <path d="M22,44.5 L26,44.5 L26,57.276 C26,60.516 23.9230769,62.892 20,62.892 C16.0769231,62.892 14,60.516 14,57.276 L14,44.5 L18,44.5 L18,56.3466777 C18,57.9621157 18.6756757,59.116 19.9459459,59.116 L20.0540541,59.116 C21.3243243,59.116 22,57.9621157 22,56.3466777 L22,44.5 L22,44.5 Z" id="UU00UU-Copy-6"></path>
                    <path d="M38.3303471,3.43673012 L29.3045913,3.43673012 C27.6730123,3.43673012 26.7010078,3.40201568 25.4860022,3.26315789 C25.5901456,4.06159015 25.62486,4.72116461 25.62486,5.86674132 L25.62486,8.60918253 C25.62486,9.6506159 25.5901456,10.4837626 25.4512878,11.4210526 L29.3045913,11.4210526 L29.3045913,6.80403135 L34.8589026,6.80403135 C34.581187,9.6506159 34.0257559,10.7267637 32.1511758,12.1153415 C30.450168,13.3650616 28.6797312,14.0593505 25.2082867,14.7536394 C26.1802912,15.7603583 26.8745801,16.8365062 27.4300112,18.0167973 C29.3740202,17.4266517 30.2418813,17.1142217 31.2486002,16.6976484 C33.331467,15.7950728 34.9283315,14.718925 36.1086226,13.399776 C37.6013438,11.6987682 38.3303471,9.72004479 38.5039194,6.80403135 L41.5240761,6.80403135 L41.5240761,13.5039194 C41.5240761,15.7950728 42.4613662,16.2463606 47.1131019,16.2463606 C51.3135498,16.2463606 52.7021277,16.0727884 53.6394177,15.4132139 C54.4031355,14.8577828 54.7155655,13.9899216 54.9238522,11.9070549 C53.4658455,11.6640538 52.6326988,11.3863382 51.3829787,10.8309071 C51.3829787,12.0806271 51.2441209,12.5319149 50.7928331,12.7054871 C50.4804031,12.8443449 49.0918253,12.9484882 47.9115342,12.9484882 L47.7379619,12.9484882 C47.1478163,12.9137738 46.731243,12.9137738 46.4882419,12.9137738 C45.3773796,12.8790594 45.1343785,12.7402016 45.1343785,12.0806271 L45.1343785,6.80403135 L51.7995521,6.80403135 L51.7995521,10.3796193 L55.6181411,10.3796193 C55.4792833,9.54647256 55.4445689,8.78275476 55.4445689,7.77603583 L55.4445689,5.86674132 C55.4445689,4.68645017 55.4792833,4.0268757 55.5834267,3.26315789 C54.3684211,3.40201568 53.3617021,3.43673012 51.7648376,3.43673012 L42.1836506,3.43673012 L42.1836506,2.25643897 C42.1836506,1.35386338 42.2530795,0.624860022 42.3919373,0 L38.1220605,0 C38.2956327,0.798432251 38.3303471,1.31914894 38.3303471,2.25643897 L38.3303471,3.43673012 Z M38.3650616,22.2519597 L38.3650616,27.3549832 L29.3045913,27.3549832 C27.8118701,27.3549832 25.7637178,27.2508399 25,27.1466965 L25,31 C26.1802912,30.8611422 27.5341545,30.7917133 29.3045913,30.7917133 L51.7995521,30.7917133 C53.5352744,30.7917133 54.8891377,30.8611422 56.0694289,31 L56.0694289,27.1466965 C55.1668533,27.2855543 53.6047032,27.3549832 51.7995521,27.3549832 L42.2183651,27.3549832 L42.2183651,22.2519597 L49.1612542,22.2519597 C50.8969765,22.2519597 52.1466965,22.3213886 53.2228443,22.4602464 L53.2228443,18.5722284 C52.181411,18.7110862 50.7581187,18.7805151 49.1265398,18.7805151 L31.4916013,18.7805151 C29.825308,18.7805151 28.9227324,18.7110862 27.8465845,18.5722284 L27.8465845,22.4602464 C28.8880179,22.3213886 29.9988802,22.2519597 31.8387458,22.2519597 L38.3650616,22.2519597 Z" id="空"></path>
                </g>
            </g>
        </g>
    </g>
</svg>