<?xml version="1.0" encoding="UTF-8" standalone="no"?>
<svg width="44px" height="44px" viewBox="0 0 44 44" version="1.1" xmlns="http://www.w3.org/2000/svg" xmlns:xlink="http://www.w3.org/1999/xlink">
    <!-- Generator: Sketch 3.8.2 (29753) - http://www.bohemiancoding.com/sketch -->
    <title>icon_alone</title>
    <desc>Created with Sketch.</desc>
    <defs></defs>
    <g id="Page-1" stroke="none" stroke-width="1" fill="none" fill-rule="evenodd">
        <g id="Artboard-1-Copy-4" transform="translate(-197.000000, -278.000000)">
            <g id="icon" transform="translate(197.000000, 278.000000)">
                <rect id="Rectangle-40" fill-opacity="0" fill="#FFFFFF" x="0" y="0" width="44" height="44"></rect>
                <g id="Group-8" transform="translate(6.000000, 6.000000)" fill="#8F8F8F">
                    <path d="M13.3303471,3.43673012 L4.30459127,3.43673012 C2.67301232,3.43673012 1.70100784,3.40201568 0.48600224,3.26315789 C0.590145577,4.06159015 0.624860022,4.72116461 0.624860022,5.86674132 L0.624860022,8.60918253 C0.624860022,9.6506159 0.590145577,10.4837626 0.451287794,11.4210526 L4.30459127,11.4210526 L4.30459127,6.80403135 L9.85890258,6.80403135 C9.58118701,9.6506159 9.02575588,10.7267637 7.15117581,12.1153415 C5.45016797,13.3650616 3.67973124,14.0593505 0.208286674,14.7536394 C1.18029115,15.7603583 1.87458007,16.8365062 2.4300112,18.0167973 C4.37402016,17.4266517 5.2418813,17.1142217 6.24860022,16.6976484 C8.33146697,15.7950728 9.92833147,14.718925 11.1086226,13.399776 C12.6013438,11.6987682 13.3303471,9.72004479 13.5039194,6.80403135 L16.5240761,6.80403135 L16.5240761,13.5039194 C16.5240761,15.7950728 17.4613662,16.2463606 22.1131019,16.2463606 C26.3135498,16.2463606 27.7021277,16.0727884 28.6394177,15.4132139 C29.4031355,14.8577828 29.7155655,13.9899216 29.9238522,11.9070549 C28.4658455,11.6640538 27.6326988,11.3863382 26.3829787,10.8309071 C26.3829787,12.0806271 26.2441209,12.5319149 25.7928331,12.7054871 C25.4804031,12.8443449 24.0918253,12.9484882 22.9115342,12.9484882 L22.7379619,12.9484882 C22.1478163,12.9137738 21.731243,12.9137738 21.4882419,12.9137738 C20.3773796,12.8790594 20.1343785,12.7402016 20.1343785,12.0806271 L20.1343785,6.80403135 L26.7995521,6.80403135 L26.7995521,10.3796193 L30.6181411,10.3796193 C30.4792833,9.54647256 30.4445689,8.78275476 30.4445689,7.77603583 L30.4445689,5.86674132 C30.4445689,4.68645017 30.4792833,4.0268757 30.5834267,3.26315789 C29.3684211,3.40201568 28.3617021,3.43673012 26.7648376,3.43673012 L17.1836506,3.43673012 L17.1836506,2.25643897 C17.1836506,1.35386338 17.2530795,0.624860022 17.3919373,0 L13.1220605,0 C13.2956327,0.798432251 13.3303471,1.31914894 13.3303471,2.25643897 L13.3303471,3.43673012 Z M13.3650616,22.2519597 L13.3650616,27.3549832 L4.30459127,27.3549832 C2.8118701,27.3549832 0.763717805,27.2508399 0,27.1466965 L0,31 C1.18029115,30.8611422 2.53415454,30.7917133 4.30459127,30.7917133 L26.7995521,30.7917133 C28.5352744,30.7917133 29.8891377,30.8611422 31.0694289,31 L31.0694289,27.1466965 C30.1668533,27.2855543 28.6047032,27.3549832 26.7995521,27.3549832 L17.2183651,27.3549832 L17.2183651,22.2519597 L24.1612542,22.2519597 C25.8969765,22.2519597 27.1466965,22.3213886 28.2228443,22.4602464 L28.2228443,18.5722284 C27.181411,18.7110862 25.7581187,18.7805151 24.1265398,18.7805151 L6.49160134,18.7805151 C4.82530795,18.7805151 3.92273236,18.7110862 2.84658455,18.5722284 L2.84658455,22.4602464 C3.88801792,22.3213886 4.99888018,22.2519597 6.8387458,22.2519597 L13.3650616,22.2519597 Z" id="空"></path>
                </g>
            </g>
        </g>
    </g>
</svg>