<?xml version="1.0" encoding="UTF-8" standalone="no"?>
<svg width="83px" height="39px" viewBox="0 0 83 39" version="1.1" xmlns="http://www.w3.org/2000/svg" xmlns:xlink="http://www.w3.org/1999/xlink">
    <!-- Generator: Sketch 39.1 (31720) - http://www.bohemiancoding.com/sketch -->
    <title>UU00UUE2</title>
    <desc>Created with Sketch.</desc>
    <defs></defs>
    <g id="Page-1" stroke="none" stroke-width="1" fill="none" fill-rule="evenodd">
        <g id="Artboard-1-Copy-4" transform="translate(-300.000000, -411.000000)" fill="#FFFFFF">
            <g id="UU00UUE2" transform="translate(291.000000, 409.000000)">
                <g id="Group" transform="translate(9.000000, 2.000000)">
                    <path d="M32.008,24.96 L32.008,39 L40.594,39 L40.594,36.48 L34.924,36.48 L34.924,33.096 L39.694,33.096 L39.694,30.576 L34.924,30.576 L34.924,27.48 L40.594,27.48 L40.594,24.96 L32.008,24.96 Z M47.452,36.48 L46.174,36.498 L49.756,32.574 C50.8,31.422 51.322,30.594 51.322,28.938 L51.322,28.614 C51.322,26.778 50.134,24.726 46.714,24.726 C43.582,24.726 42.106,26.256 42.106,29.28 L42.106,29.64 L44.986,29.64 C44.986,27.858 45.634,27.246 46.624,27.246 L46.804,27.246 C47.758,27.246 48.442,27.876 48.442,29.154 L48.442,29.334 C48.442,30.108 48.136,30.558 47.506,31.224 L42.106,37.182 L42.106,39 L51.322,39 L51.322,36.48 L47.452,36.48 Z" id="E2"></path>
                    <polygon id="-" points="0.88 33.54 25.04 33.54 25.04 30.54 0.88 30.54"></polygon>
                    <polygon id="-" points="57.88 33.54 82.04 33.54 82.04 30.54 57.88 30.54"></polygon>
                    <g id="UU00UU">
                        <path d="M36,6.74978644 L36,6.228 C36,5.22 35.3243243,4.5 34.0540541,4.5 L33.9459459,4.5 C32.6756757,4.5 32,5.22 32,6.228 L32,10.7497864 L36,6.74978644 Z M36,9.57821356 L36,14.388 C36,15.396 35.3243243,16.116 34.0540541,16.116 L33.9459459,16.116 C32.6756757,16.116 32,15.396 32,14.388 L32,13.5782136 L36,9.57821356 Z M40,6.116 C40,2.876 37.9230769,0.5 34,0.5 C30.0769231,0.5 28,2.876 28,6.116 L28,14.276 C28,17.516 30.0769231,19.892 34,19.892 C37.9230769,19.892 40,17.516 40,14.276 L40,6.116 Z" id="0"></path>
                        <path d="M50,6.78408817 L50,6.228 C50,5.22 49.3243243,4.5 48.0540541,4.5 L47.9459459,4.5 C46.6756757,4.5 46,5.22 46,6.228 L46,10.7497864 L49.8270554,6.92273103 C49.8805877,6.86919873 49.9386474,6.82297777 50,6.78408817 Z M50,9.57821356 L50,14.388 C50,15.396 49.3243243,16.116 48.0540541,16.116 L47.9459459,16.116 C46.6756757,16.116 46,15.396 46,14.388 L46,13.5439118 C46.0613526,13.5050222 46.1194123,13.4588013 46.1729446,13.405269 L50,9.57821356 Z M54,6.116 C54,2.876 51.9230769,0.5 48,0.5 C44.0769231,0.5 42,2.876 42,6.116 L42,14.276 C42,17.516 44.0769231,19.892 48,19.892 C51.9230769,19.892 54,17.516 54,14.276 L54,6.116 Z" id="0"></path>
                        <path d="M64,1.5 L68,1.5 L68,14.276 C68,17.516 65.9230769,19.892 62,19.892 C58.0769231,19.892 56,17.516 56,14.276 L56,1.5 L60,1.5 L60,13.3466777 C60,14.9621157 60.6756757,16.116 61.9459459,16.116 L62.0540541,16.116 C63.3243243,16.116 64,14.9621157 64,13.3466777 L64,1.5 Z" id="U"></path>
                        <path d="M8,1.5 L12,1.5 L12,14.276 C12,17.516 9.92307692,19.892 6,19.892 C2.07692308,19.892 0,17.516 0,14.276 L0,1.5 L4,1.5 L4,13.3466777 C4,14.9621157 4.67567568,16.116 5.94594595,16.116 L6.05405405,16.116 C7.32432432,16.116 8,14.9621157 8,13.3466777 L8,1.5 Z" id="U"></path>
                        <path d="M78,1.5 L82,1.5 L82,14.276 C82,17.516 79.9230769,19.892 76,19.892 C72.0769231,19.892 70,17.516 70,14.276 L70,1.5 L74,1.5 L74,13.3466777 C74,14.9621157 74.6756757,16.116 75.9459459,16.116 L76.0540541,16.116 C77.3243243,16.116 78,14.9621157 78,13.3466777 L78,1.5 Z" id="U"></path>
                        <path d="M22,1.5 L26,1.5 L26,14.276 C26,17.516 23.9230769,19.892 20,19.892 C16.0769231,19.892 14,17.516 14,14.276 L14,1.5 L18,1.5 L18,13.3466777 C18,14.9621157 18.6756757,16.116 19.9459459,16.116 L20.0540541,16.116 C21.3243243,16.116 22,14.9621157 22,13.3466777 L22,1.5 Z" id="U"></path>
                    </g>
                </g>
            </g>
        </g>
    </g>
</svg>