<?xml version="1.0" encoding="UTF-8" standalone="no"?>
<svg width="83px" height="41px" viewBox="0 0 83 41" version="1.1" xmlns="http://www.w3.org/2000/svg" xmlns:xlink="http://www.w3.org/1999/xlink">
    <!-- Generator: Sketch 39.1 (31720) - http://www.bohemiancoding.com/sketch -->
    <title>UU00UUE3</title>
    <desc>Created with Sketch.</desc>
    <defs></defs>
    <g id="Page-1" stroke="none" stroke-width="1" fill="none" fill-rule="evenodd">
        <g id="Artboard-1-Copy-4" transform="translate(-300.000000, -411.000000)" fill="#FFFFFF">
            <g id="UU00UUE3" transform="translate(291.000000, 409.000000)">
                <g id="Group" transform="translate(9.000000, 2.000000)">
                    <path d="M29.1,22.84 L29.1,40 L39.88,40 L39.88,36.392 L33.28,36.392 L33.28,33.048 L38.78,33.048 L38.78,29.44 L33.28,29.44 L33.28,26.448 L39.88,26.448 L39.88,22.84 L29.1,22.84 Z M45.622,34.5 L41.53,34.5 L41.53,34.808 C41.53,38.35 43.488,40.308 47.36,40.308 C51.738,40.308 53.19,37.36 53.19,35.358 L53.19,34.918 C53.19,33.092 52.31,31.904 51.232,31.222 C52.266,30.518 53.08,29.352 53.08,27.57 L53.08,27.13 C53.08,25.238 51.738,22.532 47.36,22.532 C43.488,22.532 41.64,24.38 41.64,28.142 L41.64,28.56 L45.732,28.56 C45.732,26.69 46.392,26.096 47.25,26.096 L47.47,26.096 C48.328,26.096 48.988,26.712 48.988,27.614 L48.988,27.834 C48.988,28.912 48.46,29.462 47.404,29.462 L45.16,29.462 L45.16,33.026 L47.47,33.026 C48.526,33.026 49.098,33.576 49.098,34.654 L49.098,34.874 C49.098,36.194 48.328,36.744 47.47,36.744 L47.25,36.744 C46.392,36.744 45.622,36.26 45.622,34.5 L45.622,34.5 Z" id="E3"></path>
                    <polygon id="-" points="0.88 34.06 25.04 34.06 25.04 30.54 0.88 30.54"></polygon>
                    <polygon id="-" points="57.88 34.06 82.04 34.06 82.04 30.54 57.88 30.54"></polygon>
                    <g id="UU00UU">
                        <path d="M36,6.74978644 L36,6.228 C36,5.22 35.3243243,4.5 34.0540541,4.5 L33.9459459,4.5 C32.6756757,4.5 32,5.22 32,6.228 L32,10.7497864 L36,6.74978644 Z M36,9.57821356 L36,14.388 C36,15.396 35.3243243,16.116 34.0540541,16.116 L33.9459459,16.116 C32.6756757,16.116 32,15.396 32,14.388 L32,13.5782136 L36,9.57821356 Z M40,6.116 C40,2.876 37.9230769,0.5 34,0.5 C30.0769231,0.5 28,2.876 28,6.116 L28,14.276 C28,17.516 30.0769231,19.892 34,19.892 C37.9230769,19.892 40,17.516 40,14.276 L40,6.116 Z" id="0"></path>
                        <path d="M50,6.78408817 L50,6.228 C50,5.22 49.3243243,4.5 48.0540541,4.5 L47.9459459,4.5 C46.6756757,4.5 46,5.22 46,6.228 L46,10.7497864 L49.8270554,6.92273103 C49.8805877,6.86919873 49.9386474,6.82297777 50,6.78408817 Z M50,9.57821356 L50,14.388 C50,15.396 49.3243243,16.116 48.0540541,16.116 L47.9459459,16.116 C46.6756757,16.116 46,15.396 46,14.388 L46,13.5439118 C46.0613526,13.5050222 46.1194123,13.4588013 46.1729446,13.405269 L50,9.57821356 Z M54,6.116 C54,2.876 51.9230769,0.5 48,0.5 C44.0769231,0.5 42,2.876 42,6.116 L42,14.276 C42,17.516 44.0769231,19.892 48,19.892 C51.9230769,19.892 54,17.516 54,14.276 L54,6.116 Z" id="0"></path>
                        <path d="M64,1.5 L68,1.5 L68,14.276 C68,17.516 65.9230769,19.892 62,19.892 C58.0769231,19.892 56,17.516 56,14.276 L56,1.5 L60,1.5 L60,13.3466777 C60,14.9621157 60.6756757,16.116 61.9459459,16.116 L62.0540541,16.116 C63.3243243,16.116 64,14.9621157 64,13.3466777 L64,1.5 Z" id="U"></path>
                        <path d="M8,1.5 L12,1.5 L12,14.276 C12,17.516 9.92307692,19.892 6,19.892 C2.07692308,19.892 0,17.516 0,14.276 L0,1.5 L4,1.5 L4,13.3466777 C4,14.9621157 4.67567568,16.116 5.94594595,16.116 L6.05405405,16.116 C7.32432432,16.116 8,14.9621157 8,13.3466777 L8,1.5 Z" id="U"></path>
                        <path d="M78,1.5 L82,1.5 L82,14.276 C82,17.516 79.9230769,19.892 76,19.892 C72.0769231,19.892 70,17.516 70,14.276 L70,1.5 L74,1.5 L74,13.3466777 C74,14.9621157 74.6756757,16.116 75.9459459,16.116 L76.0540541,16.116 C77.3243243,16.116 78,14.9621157 78,13.3466777 L78,1.5 Z" id="U"></path>
                        <path d="M22,1.5 L26,1.5 L26,14.276 C26,17.516 23.9230769,19.892 20,19.892 C16.0769231,19.892 14,17.516 14,14.276 L14,1.5 L18,1.5 L18,13.3466777 C18,14.9621157 18.6756757,16.116 19.9459459,16.116 L20.0540541,16.116 C21.3243243,16.116 22,14.9621157 22,13.3466777 L22,1.5 Z" id="U"></path>
                    </g>
                </g>
            </g>
        </g>
    </g>
</svg>